<svg width="78" height="78" viewBox="0 0 78 78" fill="none" xmlns="http://www.w3.org/2000/svg">
<path d="M59.9916 34.1002L58.3344 32.4433C57.6899 31.7989 57.3217 30.9244 57.3217 30.0062V27.6337C57.3217 23.8136 54.2143 20.7092 50.3935 20.7092H48.0227C47.102 20.7092 46.2274 20.3387 45.5829 19.6944L43.9026 18.0168C41.1866 15.3243 36.7903 15.3243 34.0973 18.0375L32.4401 19.6944C31.7956 20.3387 30.9209 20.7092 30.0002 20.7092H27.6295C23.8086 20.7092 20.7013 23.8136 20.7013 27.6337V29.9809C20.7013 30.9244 20.333 31.7989 19.6885 32.4433L18.0083 34.1255C15.3153 36.8386 15.3383 41.2363 18.0313 43.9265L19.6885 45.5604C20.333 46.2277 20.7013 47.1022 20.7013 48.025V50.393C20.7013 54.213 23.8086 57.322 27.6295 57.322H30.0002C30.9209 57.322 31.7956 57.6879 32.4401 58.3323L34.1203 60.0145C35.4783 61.3492 37.2507 62.0143 39.023 62.0143C40.7953 62.0143 42.5676 61.3492 43.9256 59.9892L45.5829 58.3323C46.2274 57.6879 47.102 57.322 48.0227 57.322H50.3935C54.2143 57.322 57.3217 54.213 57.3217 50.393V48.025C57.3217 47.1022 57.6899 46.2277 58.3344 45.5834L59.9686 43.9495C59.9916 43.9265 60.0147 43.9058 60.0377 43.8804C61.3266 42.571 62.0402 40.8198 62.0172 38.9788C62.0172 37.1378 61.3036 35.3889 59.9916 34.1002Z" fill="url(#paint0_linear)"/>
<g opacity="0.5" filter="url(#filter0_f)">
<path d="M52.9011 35.7583L51.8039 34.6613C51.3772 34.2347 51.1334 33.6557 51.1334 33.0478V31.4769C51.1334 28.9477 49.0761 26.8923 46.5463 26.8923H44.9767C44.3671 26.8923 43.788 26.647 43.3613 26.2204L42.2488 25.1097C40.4506 23.327 37.5398 23.327 35.7568 25.1234L34.6596 26.2204C34.2329 26.647 33.6538 26.8923 33.0442 26.8923H31.4746C28.9448 26.8923 26.8875 28.9477 26.8875 31.4769V33.031C26.8875 33.6557 26.6437 34.2347 26.217 34.6613L25.1045 35.7751C23.3215 37.5714 23.3367 40.4831 25.1197 42.2642L26.217 43.3459C26.6437 43.7878 26.8875 44.3668 26.8875 44.9777V46.5456C26.8875 49.0748 28.9448 51.1332 31.4746 51.1332H33.0442C33.6538 51.1332 34.2329 51.3754 34.6596 51.8021L35.7721 52.9158C36.6712 53.7995 37.8446 54.2399 39.0181 54.2399C40.1915 54.2399 41.3649 53.7995 42.2641 52.8991L43.3613 51.8021C43.788 51.3754 44.3671 51.1332 44.9767 51.1332H46.5463C49.0761 51.1332 51.1334 49.0748 51.1334 46.5456V44.9777C51.1334 44.3668 51.3772 43.7878 51.8039 43.3612L52.8859 42.2794C52.9011 42.2642 52.9164 42.2505 52.9316 42.2337C53.785 41.3668 54.2575 40.2073 54.2422 38.9884C54.2422 37.7695 53.7698 36.6115 52.9011 35.7583Z" fill="#FF2828"/>
</g>
<g filter="url(#filter1_b)">
<mask id="path-3-outside-1" maskUnits="userSpaceOnUse" x="22.9823" y="22.9858" width="49" height="49" fill="black">
<rect fill="white" x="22.9823" y="22.9858" width="49" height="49"/>
<path d="M67.9739 42.086L66.3167 40.4291C65.6722 39.7848 65.304 38.9103 65.304 37.9921V35.6195C65.304 31.7994 62.1966 28.6951 58.3758 28.6951H56.005C55.0843 28.6951 54.2097 28.3246 53.5652 27.6802L51.8849 26.0026C49.1689 23.3101 44.7726 23.3101 42.0796 26.0233L40.4224 27.6802C39.7779 28.3246 38.9032 28.6951 37.9825 28.6951H35.6118C31.7909 28.6951 28.6836 31.7994 28.6836 35.6195V37.9668C28.6836 38.9103 28.3153 39.7848 27.6708 40.4291L25.9906 42.1113C23.2976 44.8245 23.3206 49.2222 26.0136 51.9123L27.6708 53.5462C28.3153 54.2136 28.6836 55.088 28.6836 56.0108V58.3788C28.6836 62.1989 31.7909 65.3079 35.6118 65.3079H37.9825C38.9032 65.3079 39.7779 65.6738 40.4224 66.3181L42.1026 68.0003C43.4606 69.335 45.233 70.0001 47.0053 70.0001C48.7776 70.0001 50.5499 69.335 51.9079 67.975L53.5652 66.3181C54.2097 65.6738 55.0843 65.3079 56.005 65.3079H58.3758C62.1966 65.3079 65.304 62.1989 65.304 58.3788V56.0108C65.304 55.088 65.6722 54.2136 66.3167 53.5692L67.9509 51.9353C67.9739 51.9123 67.997 51.8916 68.02 51.8663C69.3089 50.5569 70.0225 48.8056 69.9995 46.9646C69.9995 45.1236 69.2859 43.3747 67.9739 42.086Z"/>
</mask>
<path d="M67.9739 42.086L66.3167 40.4291C65.6722 39.7848 65.304 38.9103 65.304 37.9921V35.6195C65.304 31.7994 62.1966 28.6951 58.3758 28.6951H56.005C55.0843 28.6951 54.2097 28.3246 53.5652 27.6802L51.8849 26.0026C49.1689 23.3101 44.7726 23.3101 42.0796 26.0233L40.4224 27.6802C39.7779 28.3246 38.9032 28.6951 37.9825 28.6951H35.6118C31.7909 28.6951 28.6836 31.7994 28.6836 35.6195V37.9668C28.6836 38.9103 28.3153 39.7848 27.6708 40.4291L25.9906 42.1113C23.2976 44.8245 23.3206 49.2222 26.0136 51.9123L27.6708 53.5462C28.3153 54.2136 28.6836 55.088 28.6836 56.0108V58.3788C28.6836 62.1989 31.7909 65.3079 35.6118 65.3079H37.9825C38.9032 65.3079 39.7779 65.6738 40.4224 66.3181L42.1026 68.0003C43.4606 69.335 45.233 70.0001 47.0053 70.0001C48.7776 70.0001 50.5499 69.335 51.9079 67.975L53.5652 66.3181C54.2097 65.6738 55.0843 65.3079 56.005 65.3079H58.3758C62.1966 65.3079 65.304 62.1989 65.304 58.3788V56.0108C65.304 55.088 65.6722 54.2136 66.3167 53.5692L67.9509 51.9353C67.9739 51.9123 67.997 51.8916 68.02 51.8663C69.3089 50.5569 70.0225 48.8056 69.9995 46.9646C69.9995 45.1236 69.2859 43.3747 67.9739 42.086Z" fill="#FF2828" fill-opacity="0.17"/>
<path d="M66.3167 40.4291L67.0237 39.7219L66.3167 40.4291ZM53.5652 27.6802L54.2722 26.973L54.2717 26.9725L53.5652 27.6802ZM51.8849 26.0026L52.5915 25.2949L52.5889 25.2924L51.8849 26.0026ZM42.0796 26.0233L42.7866 26.7305L42.7893 26.7278L42.0796 26.0233ZM40.4224 27.6802L41.1294 28.3874L40.4224 27.6802ZM27.6708 40.4291L26.9638 39.7219L26.9633 39.7224L27.6708 40.4291ZM25.9906 42.1113L25.2831 41.4046L25.2808 41.4068L25.9906 42.1113ZM26.0136 51.9123L25.3069 52.6198L25.3115 52.6244L26.0136 51.9123ZM27.6708 53.5462L28.3902 52.8515C28.3845 52.8456 28.3787 52.8398 28.3729 52.8341L27.6708 53.5462ZM40.4224 66.3181L41.1299 65.6114L41.1294 65.6109L40.4224 66.3181ZM42.1026 68.0003L41.3951 68.707L41.4017 68.7135L42.1026 68.0003ZM51.9079 67.975L51.2009 67.2678L51.2003 67.2684L51.9079 67.975ZM53.5652 66.3181L54.2722 67.0253H54.2722L53.5652 66.3181ZM66.3167 53.5692L67.0237 54.2764L66.3167 53.5692ZM67.9509 51.9353L67.2439 51.2281L67.9509 51.9353ZM68.02 51.8663L67.3073 51.1648C67.2981 51.1742 67.289 51.1838 67.2801 51.1935L68.02 51.8663ZM69.9995 46.9646H68.9994L68.9995 46.9771L69.9995 46.9646ZM68.681 41.3788L67.0237 39.7219L65.6097 41.1363L67.2669 42.7932L68.681 41.3788ZM67.0237 39.7219C66.5644 39.2627 66.304 38.6416 66.304 37.9921H64.304C64.304 39.1789 64.78 40.3068 65.6097 41.1363L67.0237 39.7219ZM66.304 37.9921V35.6195H64.304V37.9921H66.304ZM66.304 35.6195C66.304 31.2465 62.7483 27.6951 58.3758 27.6951V29.6951C61.645 29.6951 64.304 32.3523 64.304 35.6195H66.304ZM58.3758 27.6951H56.005V29.6951H58.3758V27.6951ZM56.005 27.6951C55.3542 27.6951 54.7325 27.4332 54.2722 26.973L52.8582 28.3874C53.6868 29.2159 54.8145 29.6951 56.005 29.6951V27.6951ZM54.2717 26.9725L52.5915 25.2949L51.1784 26.7103L52.8586 28.3879L54.2717 26.9725ZM52.5889 25.2924C49.4843 22.2148 44.4552 22.2104 41.3699 25.3188L42.7893 26.7278C45.09 24.4099 48.8535 24.4055 51.1809 26.7128L52.5889 25.2924ZM41.3726 25.3161L39.7153 26.973L41.1294 28.3874L42.7866 26.7305L41.3726 25.3161ZM39.7153 26.973C39.255 27.4332 38.6334 27.6951 37.9825 27.6951V29.6951C39.1731 29.6951 40.3007 29.2159 41.1294 28.3874L39.7153 26.973ZM37.9825 27.6951H35.6118V29.6951H37.9825V27.6951ZM35.6118 27.6951C31.2393 27.6951 27.6836 31.2465 27.6836 35.6195H29.6836C29.6836 32.3523 32.3426 29.6951 35.6118 29.6951V27.6951ZM27.6836 35.6195V37.9668H29.6836V35.6195H27.6836ZM27.6836 37.9668C27.6836 38.6455 27.4204 39.2655 26.9638 39.7219L28.3779 41.1363C29.2103 40.304 29.6836 39.175 29.6836 37.9668H27.6836ZM26.9633 39.7224L25.2831 41.4046L26.6981 42.818L28.3784 41.1358L26.9633 39.7224ZM25.2808 41.4068C22.1982 44.5126 22.2255 49.5417 25.3069 52.6198L26.7203 51.2048C24.4157 48.9026 24.397 45.1364 26.7003 42.8158L25.2808 41.4068ZM25.3115 52.6244L26.9688 54.2583L28.3729 52.8341L26.7157 51.2002L25.3115 52.6244ZM26.9515 54.2409C27.4242 54.7304 27.6836 55.3589 27.6836 56.0108H29.6836C29.6836 54.8172 29.2064 53.6968 28.3902 52.8515L26.9515 54.2409ZM27.6836 56.0108V58.3788H29.6836V56.0108H27.6836ZM27.6836 58.3788C27.6836 62.7509 31.2384 66.3079 35.6118 66.3079V64.3079C32.3434 64.3079 29.6836 61.6468 29.6836 58.3788H27.6836ZM35.6118 66.3079H37.9825V64.3079H35.6118V66.3079ZM37.9825 66.3079C38.6368 66.3079 39.2575 66.5675 39.7153 67.0253L41.1294 65.6109C40.2983 64.78 39.1697 64.3079 37.9825 64.3079V66.3079ZM39.7148 67.0248L41.3951 68.707L42.8101 67.2936L41.1299 65.6114L39.7148 67.0248ZM41.4017 68.7135C42.9554 70.2406 44.9832 71.0001 47.0053 71.0001V69.0001C45.4828 69.0001 43.9659 68.4295 42.8036 67.2871L41.4017 68.7135ZM47.0053 71.0001C49.0285 71.0001 51.0599 70.2395 52.6156 68.6816L51.2003 67.2684C50.0399 68.4305 48.5267 69.0001 47.0053 69.0001V71.0001ZM52.615 68.6822L54.2722 67.0253L52.8582 65.6109L51.2009 67.2678L52.615 68.6822ZM54.2722 67.0253C54.7301 66.5675 55.3508 66.3079 56.005 66.3079V64.3079C54.8179 64.3079 53.6893 64.78 52.8582 65.6109L54.2722 67.0253ZM56.005 66.3079H58.3758V64.3079H56.005V66.3079ZM58.3758 66.3079C62.7492 66.3079 66.304 62.7509 66.304 58.3788H64.304C64.304 61.6468 61.6441 64.3079 58.3758 64.3079V66.3079ZM66.304 58.3788V56.0108H64.304V58.3788H66.304ZM66.304 56.0108C66.304 55.356 66.5649 54.7351 67.0237 54.2764L65.6097 52.862C64.7795 53.692 64.304 54.8201 64.304 56.0108H66.304ZM67.0237 54.2764L68.658 52.6425L67.2439 51.2281L65.6097 52.862L67.0237 54.2764ZM68.658 52.6425C68.6579 52.6426 68.6583 52.6422 68.6593 52.6412C68.6603 52.6402 68.6617 52.6388 68.6639 52.6367C68.6664 52.6343 68.6764 52.6247 68.6835 52.6178C68.7005 52.6012 68.7285 52.5735 68.7599 52.539L67.2801 51.1935C67.2885 51.1843 67.2935 51.1797 67.2875 51.1856C67.286 51.187 67.2843 51.1887 67.2817 51.1911C67.2796 51.1931 67.2757 51.1969 67.2725 51.2001C67.2655 51.2068 67.2553 51.2168 67.2439 51.2281L68.658 52.6425ZM68.7326 52.5678C70.2066 51.0704 71.0258 49.063 70.9994 46.9521L68.9995 46.9771C69.0192 48.5483 68.4113 50.0433 67.3073 51.1648L68.7326 52.5678ZM70.9995 46.9646C70.9995 44.863 70.1835 42.8546 68.6747 41.3726L67.2732 42.7994C68.3884 43.8948 68.9995 45.3843 68.9995 46.9646H70.9995Z" fill="url(#paint1_linear)" mask="url(#path-3-outside-1)"/>
</g>
<g filter="url(#filter2_bd)">
<mask id="path-5-inside-2" fill="white">
<path fill-rule="evenodd" clip-rule="evenodd" d="M42.4939 54.3283C42.1256 54.7195 41.6192 54.9266 41.0668 54.9266C40.5374 54.9266 40.031 54.7195 39.6628 54.3283C38.8802 53.5459 38.8802 52.2572 39.6628 51.4748L51.4936 39.6464C52.2762 38.8662 53.5421 38.8662 54.3247 39.6464C55.1073 40.4288 55.1073 41.7198 54.3247 42.5022L42.4939 54.3283ZM52.9206 54.9267C51.7928 54.9267 50.8951 54.0292 50.8951 52.9016C50.8951 51.7993 51.7928 50.8995 52.9206 50.8995C54.0254 50.8995 54.9231 51.7993 54.9231 52.9016C54.9231 54.0292 54.0254 54.9267 52.9206 54.9267ZM43.0923 41.0733C43.0923 39.9687 42.1946 39.0712 41.0898 39.0712C39.9849 39.0712 39.0643 39.9687 39.0643 41.0733C39.0643 42.2032 39.9849 43.0984 41.0898 43.0984C42.1946 43.0984 43.0923 42.2032 43.0923 41.0733Z"/>
</mask>
<path fill-rule="evenodd" clip-rule="evenodd" d="M42.4939 54.3283C42.1256 54.7195 41.6192 54.9266 41.0668 54.9266C40.5374 54.9266 40.031 54.7195 39.6628 54.3283C38.8802 53.5459 38.8802 52.2572 39.6628 51.4748L51.4936 39.6464C52.2762 38.8662 53.5421 38.8662 54.3247 39.6464C55.1073 40.4288 55.1073 41.7198 54.3247 42.5022L42.4939 54.3283ZM52.9206 54.9267C51.7928 54.9267 50.8951 54.0292 50.8951 52.9016C50.8951 51.7993 51.7928 50.8995 52.9206 50.8995C54.0254 50.8995 54.9231 51.7993 54.9231 52.9016C54.9231 54.0292 54.0254 54.9267 52.9206 54.9267ZM43.0923 41.0733C43.0923 39.9687 42.1946 39.0712 41.0898 39.0712C39.9849 39.0712 39.0643 39.9687 39.0643 41.0733C39.0643 42.2032 39.9849 43.0984 41.0898 43.0984C42.1946 43.0984 43.0923 42.2032 43.0923 41.0733Z" fill="url(#paint2_linear)"/>
<path d="M42.4939 54.3283L42.2109 54.0453L42.2026 54.0541L42.4939 54.3283ZM39.6628 54.3283L39.9541 54.054L39.9456 54.0454L39.6628 54.3283ZM39.6628 51.4748L39.9456 51.7576L39.6628 51.4748ZM51.4936 39.6464L51.2112 39.3631L51.2108 39.3635L51.4936 39.6464ZM54.3247 39.6464L54.6075 39.3635L54.6071 39.3631L54.3247 39.6464ZM54.3247 42.5022L54.6075 42.7851L54.6075 42.7851L54.3247 42.5022ZM41.0668 55.3266C41.7218 55.3266 42.3361 55.0794 42.7851 54.6025L42.2026 54.0541C41.9151 54.3596 41.5166 54.5266 41.0668 54.5266V55.3266ZM39.3715 54.6025C39.8188 55.0777 40.4323 55.3266 41.0668 55.3266V54.5266C40.6425 54.5266 40.2432 54.3614 39.954 54.0541L39.3715 54.6025ZM39.3799 51.1919C38.4411 52.1305 38.4411 53.6725 39.3799 54.6112L39.9456 54.0454C39.3192 53.4192 39.3192 52.3838 39.9456 51.7576L39.3799 51.1919ZM51.2108 39.3635L39.3799 51.1919L39.9456 51.7576L51.7764 39.9292L51.2108 39.3635ZM54.6071 39.3631C53.6684 38.4273 52.1499 38.4273 51.2112 39.3631L51.776 39.9297C52.4025 39.3052 53.4158 39.3052 54.0423 39.9297L54.6071 39.3631ZM54.6075 42.7851C55.5463 41.8464 55.5463 40.3021 54.6075 39.3635L54.0419 39.9292C54.6682 40.5554 54.6682 41.5931 54.0419 42.2193L54.6075 42.7851ZM42.7767 54.6112L54.6075 42.7851L54.0419 42.2193L42.2111 54.0454L42.7767 54.6112ZM50.4951 52.9016C50.4951 54.2502 51.5719 55.3267 52.9206 55.3267V54.5267C52.0136 54.5267 51.2951 53.8082 51.2951 52.9016H50.4951ZM52.9206 50.4995C51.5746 50.4995 50.4951 51.5756 50.4951 52.9016H51.2951C51.2951 52.023 52.0109 51.2995 52.9206 51.2995V50.4995ZM55.3231 52.9016C55.3231 51.5786 54.2466 50.4995 52.9206 50.4995V51.2995C53.8043 51.2995 54.5231 52.02 54.5231 52.9016H55.3231ZM52.9206 55.3267C54.2493 55.3267 55.3231 54.2472 55.3231 52.9016H54.5231C54.5231 53.8112 53.8016 54.5267 52.9206 54.5267V55.3267ZM41.0898 39.4712C41.9738 39.4712 42.6923 40.1897 42.6923 41.0733H43.4923C43.4923 39.7477 42.4154 38.6712 41.0898 38.6712V39.4712ZM39.4643 41.0733C39.4643 40.1956 40.1998 39.4712 41.0898 39.4712V38.6712C39.7701 38.6712 38.6643 39.7418 38.6643 41.0733H39.4643ZM41.0898 42.6984C40.2025 42.6984 39.4643 41.9789 39.4643 41.0733H38.6643C38.6643 42.4274 39.7674 43.4984 41.0898 43.4984V42.6984ZM42.6923 41.0733C42.6923 41.9849 41.9711 42.6984 41.0898 42.6984V43.4984C42.4181 43.4984 43.4923 42.4215 43.4923 41.0733H42.6923Z" fill="url(#paint3_linear)" mask="url(#path-5-inside-2)"/>
</g>
<defs>
<filter id="filter0_f" x="0.774841" y="0.774414" width="76.4677" height="76.4654" filterUnits="userSpaceOnUse" color-interpolation-filters="sRGB">
<feFlood flood-opacity="0" result="BackgroundImageFix"/>
<feBlend mode="normal" in="SourceGraphic" in2="BackgroundImageFix" result="shape"/>
<feGaussianBlur stdDeviation="11.5" result="effect1_foregroundBlur"/>
</filter>
<filter id="filter1_b" x="-1.0177" y="-1.01416" width="96.0177" height="96.0143" filterUnits="userSpaceOnUse" color-interpolation-filters="sRGB">
<feFlood flood-opacity="0" result="BackgroundImageFix"/>
<feGaussianBlur in="BackgroundImage" stdDeviation="12"/>
<feComposite in2="SourceAlpha" operator="in" result="effect1_backgroundBlur"/>
<feBlend mode="normal" in="SourceGraphic" in2="effect1_backgroundBlur" result="shape"/>
</filter>
<filter id="filter2_bd" x="24.0643" y="24.0613" width="45.8589" height="45.8654" filterUnits="userSpaceOnUse" color-interpolation-filters="sRGB">
<feFlood flood-opacity="0" result="BackgroundImageFix"/>
<feGaussianBlur in="BackgroundImage" stdDeviation="7.5"/>
<feComposite in2="SourceAlpha" operator="in" result="effect1_backgroundBlur"/>
<feColorMatrix in="SourceAlpha" type="matrix" values="0 0 0 0 0 0 0 0 0 0 0 0 0 0 0 0 0 0 127 0"/>
<feOffset dx="5" dy="5"/>
<feGaussianBlur stdDeviation="5"/>
<feColorMatrix type="matrix" values="0 0 0 0 1 0 0 0 0 0.580392 0 0 0 0 0.247059 0 0 0 0.5 0"/>
<feBlend mode="normal" in2="effect1_backgroundBlur" result="effect2_dropShadow"/>
<feBlend mode="normal" in="SourceGraphic" in2="effect2_dropShadow" result="shape"/>
</filter>
<linearGradient id="paint0_linear" x1="39.0089" y1="16" x2="39.0089" y2="62.0143" gradientUnits="userSpaceOnUse">
<stop stop-color="#FF2828"/>
<stop offset="1" stop-color="#FF2828"/>
</linearGradient>
<linearGradient id="paint1_linear" x1="23.8481" y1="23.6729" x2="60.628" y2="65.7261" gradientUnits="userSpaceOnUse">
<stop stop-color="white" stop-opacity="0.4"/>
<stop offset="1" stop-color="white" stop-opacity="0"/>
</linearGradient>
<linearGradient id="paint2_linear" x1="53.7987" y1="41.9263" x2="36.1335" y2="42.502" gradientUnits="userSpaceOnUse">
<stop stop-color="white"/>
<stop offset="1" stop-color="white" stop-opacity="0.2"/>
</linearGradient>
<linearGradient id="paint3_linear" x1="41.5887" y1="40.9096" x2="51.7101" y2="53.4399" gradientUnits="userSpaceOnUse">
<stop stop-color="white" stop-opacity="0.25"/>
<stop offset="1" stop-color="white" stop-opacity="0"/>
</linearGradient>
</defs>
</svg>
