<svg width="66" height="60" viewBox="0 0 66 60" fill="none" xmlns="http://www.w3.org/2000/svg">
<path fill-rule="evenodd" clip-rule="evenodd" d="M37.2283 19.5634C37.2298 19.5604 37.2206 19.5512 37.2246 19.535L37.3199 19.1571C38.2689 14.5848 35.46 9.82054 30.9519 8.35594C26.4438 6.89134 21.8402 9.24744 20.515 13.6975C20.461 13.8165 20.4284 13.9456 20.4188 14.079L22.8949 14.8834C22.9488 14.7644 22.9814 14.6353 22.991 14.5019C23.8081 11.2602 27.0943 9.48476 30.331 10.5363C33.5676 11.5878 35.5291 15.0681 34.712 18.3098C34.6807 18.4409 34.673 18.5781 34.6891 18.7151L37.1465 19.5508C37.2111 19.5623 37.2266 19.5669 37.2283 19.5634ZM41.0111 27.7475L39.6306 38.8334C38.8388 46.0974 34.3016 47.6515 29.1654 45.9365L15.201 41.2739C10.05 39.554 6.59598 36.2813 9.63246 28.8172L13.6183 18.6012C15.2705 14.9139 17.9435 14.2295 20.1022 14.9503L37.2078 20.6617C39.3367 21.3726 41.1769 23.6826 41.0111 27.7475Z" fill="url(#paint0_linear)"/>
<g opacity="0.5" filter="url(#filter0_f)">
<path d="M22.0504 26.0922C23.0099 23.4166 25.8162 22.0357 28.5476 22.8952C31.279 23.7546 33.0505 26.5759 32.6491 29.4272L31.9922 34.0929C31.4881 37.6727 28.0685 39.8468 24.6391 38.7678C21.2097 37.6887 19.2756 33.8299 20.4803 30.4705L22.0504 26.0922Z" fill="#FF2828"/>
</g>
<g filter="url(#filter1_bd)">
<path fill-rule="evenodd" clip-rule="evenodd" d="M49.0414 12.9423C49.088 13.1012 49.8257 16.4084 49.7981 16.5763L46.8873 17.5191C46.8016 17.3991 45.9783 14.236 45.8056 13.5722L45.8056 13.5721L45.7753 13.4559C44.7794 9.47597 40.8129 7.27293 36.9157 8.53527C33.0185 9.79761 30.6666 14.0473 31.6624 18.0272C31.7279 18.1735 32.6742 21.9555 32.6863 22.1191L29.7049 23.0847C29.6395 22.9385 28.6931 19.1565 28.6811 18.9929C27.5217 13.381 30.8906 7.56456 36.3187 5.80634C41.7467 4.04812 47.303 6.97363 48.9154 12.4388L49.0414 12.9423ZM36.6708 29.9073C35.6805 30.2329 34.6648 29.641 34.4021 28.5853C34.1395 27.5296 34.7295 26.4098 35.7198 26.0842C36.7102 25.7586 37.7259 26.3505 37.9885 27.4062C38.2511 28.4619 37.6612 29.5817 36.6708 29.9073ZM46.0497 25.2017C46.3123 26.2574 47.328 26.8493 48.3183 26.5237C49.3087 26.1981 49.8986 25.0783 49.636 24.0226C49.3734 22.9669 48.3577 22.375 47.3673 22.7006C46.377 23.0263 45.787 24.146 46.0497 25.2017Z" fill="url(#paint1_linear)"/>
</g>
<g filter="url(#filter2_b)">
<mask id="path-4-outside-1" maskUnits="userSpaceOnUse" x="20.4733" y="10.3506" width="47.5573" height="46.238" fill="black">
<rect fill="white" x="20.4733" y="10.3506" width="47.5573" height="46.238"/>
<path fill-rule="evenodd" clip-rule="evenodd" d="M62.8541 31.2822L58.0599 18.8413C55.956 14.5303 52.795 13.5046 50.2345 14.3395L29.661 21.0479C27.0647 21.8945 24.7314 24.5678 25.1137 29.5842L26.7744 43.0467C27.8614 52.9743 33.2005 53.8039 39.3958 51.7838L56.1912 46.3073C62.3686 44.293 66.1101 39.3509 62.8541 31.2822ZM36.7254 29.8721C35.7356 30.197 34.7199 29.604 34.4567 28.5476C34.1935 27.4912 34.7826 26.3714 35.7724 26.0465C36.7622 25.7216 37.7779 26.3146 38.0411 27.371C38.3042 28.4275 37.7152 29.5472 36.7254 29.8721ZM46.1042 25.1641C46.3674 26.2205 47.3831 26.8135 48.3729 26.4886C49.3627 26.1637 49.9517 25.0439 49.6885 23.9875C49.4254 22.9311 48.4096 22.3381 47.4199 22.663C46.4301 22.9879 45.841 24.1077 46.1042 25.1641Z"/>
</mask>
<path fill-rule="evenodd" clip-rule="evenodd" d="M62.8541 31.2822L58.0599 18.8413C55.956 14.5303 52.795 13.5046 50.2345 14.3395L29.661 21.0479C27.0647 21.8945 24.7314 24.5678 25.1137 29.5842L26.7744 43.0467C27.8614 52.9743 33.2005 53.8039 39.3958 51.7838L56.1912 46.3073C62.3686 44.293 66.1101 39.3509 62.8541 31.2822ZM36.7254 29.8721C35.7356 30.197 34.7199 29.604 34.4567 28.5476C34.1935 27.4912 34.7826 26.3714 35.7724 26.0465C36.7622 25.7216 37.7779 26.3146 38.0411 27.371C38.3042 28.4275 37.7152 29.5472 36.7254 29.8721ZM46.1042 25.1641C46.3674 26.2205 47.3831 26.8135 48.3729 26.4886C49.3627 26.1637 49.9517 25.0439 49.6885 23.9875C49.4254 22.9311 48.4096 22.3381 47.4199 22.663C46.4301 22.9879 45.841 24.1077 46.1042 25.1641Z" fill="#FF2828" fill-opacity="0.18"/>
<path d="M58.0599 18.8413L58.9777 18.4239C58.9677 18.3978 58.9565 18.3722 58.9443 18.3471L58.0599 18.8413ZM62.8541 31.2822L61.9362 31.6996C61.938 31.7044 61.9399 31.7092 61.9418 31.7139L62.8541 31.2822ZM50.2345 14.3395L49.9833 13.3723L50.2345 14.3395ZM29.661 21.0479L29.4098 20.0807L29.661 21.0479ZM25.1137 29.5842L24.1319 29.7166C24.1331 29.7325 24.1347 29.7484 24.1367 29.7643L25.1137 29.5842ZM26.7744 43.0467L27.7532 42.8805L27.7515 42.8666L26.7744 43.0467ZM39.3958 51.7838L39.647 52.751L39.3958 51.7838ZM56.1912 46.3073L55.94 45.3401L56.1912 46.3073ZM34.4567 28.5476L35.4114 28.2468L34.4567 28.5476ZM48.3729 26.4886L48.1198 25.5221L48.3729 26.4886ZM46.1042 25.1641L45.1495 25.4649L45.1495 25.4649L46.1042 25.1641ZM49.6885 23.9875L48.7339 24.2884L48.7339 24.2884L49.6885 23.9875ZM47.4199 22.663L47.1668 21.6964L47.4199 22.663ZM57.142 19.2588L61.9362 31.6996L63.7719 30.8647L58.9777 18.4239L57.142 19.2588ZM50.4857 15.3067C52.4864 14.6543 55.2258 15.3404 57.1754 19.3355L58.9443 18.3471C56.6863 13.7202 53.1035 12.3549 49.9833 13.3723L50.4857 15.3067ZM29.9122 22.0151L50.4857 15.3067L49.9833 13.3723L29.4098 20.0807L29.9122 22.0151ZM26.0955 29.4517C25.9176 27.117 26.3775 25.4309 27.0945 24.2629C27.8107 23.0962 28.8301 22.368 29.9122 22.0151L29.4098 20.0807C27.8956 20.5745 26.4503 21.6062 25.4462 23.2419C24.443 24.8762 23.9275 27.035 24.1319 29.7166L26.0955 29.4517ZM27.7515 42.8666L26.0908 29.404L24.1367 29.7643L25.7974 43.2269L27.7515 42.8666ZM39.1446 50.8166C36.1202 51.8028 33.5582 52.0005 31.6571 50.9878C29.8027 50.0001 28.2799 47.6918 27.7531 42.8805L25.7958 43.2129C26.356 48.3293 28.0462 51.3996 30.6819 52.8035C33.2708 54.1825 36.4761 53.7849 39.647 52.751L39.1446 50.8166ZM55.94 45.3401L39.1446 50.8166L39.647 52.751L56.4424 47.2745L55.94 45.3401ZM61.9418 31.7139C63.4964 35.5662 63.3118 38.4843 62.1981 40.6215C61.0721 42.7825 58.8734 44.3836 55.94 45.3401L56.4424 47.2745C59.6863 46.2167 62.4471 44.3396 63.9222 41.5088C65.4096 38.6542 65.4678 35.0669 63.7663 30.8504L61.9418 31.7139ZM33.502 28.8485C33.8891 30.4021 35.4172 31.3512 36.9785 30.8387L36.4723 28.9056C36.054 29.0429 35.5507 28.806 35.4114 28.2468L33.502 28.8485ZM35.5193 25.08C33.9684 25.589 33.1169 27.3024 33.502 28.8485L35.4114 28.2468C35.2702 27.68 35.5968 27.1538 36.0255 27.0131L35.5193 25.08ZM38.9957 27.0702C38.6087 25.5166 37.0805 24.5675 35.5193 25.08L36.0255 27.0131C36.4438 26.8758 36.9471 27.1126 37.0864 27.6719L38.9957 27.0702ZM36.9785 30.8387C38.5294 30.3296 39.3809 28.6163 38.9957 27.0702L37.0864 27.6719C37.2276 28.2387 36.901 28.7649 36.4723 28.9056L36.9785 30.8387ZM48.1198 25.5221C47.7015 25.6594 47.1982 25.4225 47.0589 24.8633L45.1495 25.4649C45.5366 27.0185 47.0647 27.9677 48.626 27.4552L48.1198 25.5221ZM48.7339 24.2884C48.8751 24.8551 48.5485 25.3814 48.1198 25.5221L48.626 27.4552C50.1769 26.9461 51.0284 25.2328 50.6432 23.6867L48.7339 24.2884ZM47.6729 23.6296C48.0913 23.4923 48.5946 23.7291 48.7339 24.2884L50.6432 23.6867C50.2562 22.1331 48.728 21.1839 47.1668 21.6964L47.6729 23.6296ZM47.0589 24.8633C46.9177 24.2965 47.2443 23.7703 47.6729 23.6296L47.1668 21.6964C45.6159 22.2055 44.7644 23.9189 45.1495 25.4649L47.0589 24.8633Z" fill="url(#paint2_linear)" mask="url(#path-4-outside-1)"/>
</g>
<defs>
<filter id="filter0_f" x="0.120911" y="2.64087" width="52.5848" height="56.4045" filterUnits="userSpaceOnUse" color-interpolation-filters="sRGB">
<feFlood flood-opacity="0" result="BackgroundImageFix"/>
<feBlend mode="normal" in="SourceGraphic" in2="BackgroundImageFix" result="shape"/>
<feGaussianBlur stdDeviation="10" result="effect1_foregroundBlur"/>
</filter>
<filter id="filter1_bd" x="13.453" y="-9.70386" width="51.3459" height="54.7005" filterUnits="userSpaceOnUse" color-interpolation-filters="sRGB">
<feFlood flood-opacity="0" result="BackgroundImageFix"/>
<feGaussianBlur in="BackgroundImage" stdDeviation="7.5"/>
<feComposite in2="SourceAlpha" operator="in" result="effect1_backgroundBlur"/>
<feColorMatrix in="SourceAlpha" type="matrix" values="0 0 0 0 0 0 0 0 0 0 0 0 0 0 0 0 0 0 127 0"/>
<feOffset dx="5" dy="5"/>
<feGaussianBlur stdDeviation="5"/>
<feColorMatrix type="matrix" values="0 0 0 0 0.15375 0 0 0 0 0.522433 0 0 0 0 0.9 0 0 0 0.5 0"/>
<feBlend mode="normal" in2="effect1_backgroundBlur" result="effect2_dropShadow"/>
<feBlend mode="normal" in="SourceGraphic" in2="effect2_dropShadow" result="shape"/>
</filter>
<filter id="filter2_b" x="0.0877686" y="-10.9453" width="88.9527" height="88.6353" filterUnits="userSpaceOnUse" color-interpolation-filters="sRGB">
<feFlood flood-opacity="0" result="BackgroundImageFix"/>
<feGaussianBlur in="BackgroundImage" stdDeviation="12"/>
<feComposite in2="SourceAlpha" operator="in" result="effect1_backgroundBlur"/>
<feBlend mode="normal" in="SourceGraphic" in2="effect1_backgroundBlur" result="shape"/>
</filter>
<linearGradient id="paint0_linear" x1="46.2402" y1="13.1618" x2="3.1471" y2="29.1428" gradientUnits="userSpaceOnUse">
<stop stop-color="#FF2828"/>
<stop offset="1" stop-color="#FF5050"/>
</linearGradient>
<linearGradient id="paint1_linear" x1="52.921" y1="6.47092" x2="23.8053" y2="14.1094" gradientUnits="userSpaceOnUse">
<stop stop-color="white"/>
<stop offset="1" stop-color="white" stop-opacity="0.2"/>
</linearGradient>
<linearGradient id="paint2_linear" x1="28.4006" y1="25.1422" x2="54.7237" y2="46.6927" gradientUnits="userSpaceOnUse">
<stop stop-color="white" stop-opacity="0.25"/>
<stop offset="1" stop-color="white" stop-opacity="0"/>
</linearGradient>
</defs>
</svg>
