<svg width="68" height="68" viewBox="0 0 68 68" fill="none" xmlns="http://www.w3.org/2000/svg">
<path d="M46.0873 18.7451L30.9032 14.667C24.9661 13.0725 19.8576 16.1723 18.1985 22.378L14.3694 36.7003C12.715 42.8885 15.5926 48.1332 21.5297 49.7277L36.7138 53.8058C42.6509 55.4003 47.7419 52.2958 49.3963 46.1076L53.2254 31.7853C54.8845 25.5796 52.0244 20.3396 46.0873 18.7451Z" fill="url(#paint0_linear)"/>
<g opacity="0.5" filter="url(#filter0_f)">
<rect width="25.3948" height="25.2655" rx="10" transform="matrix(0.300479 -0.953788 0.953526 0.301312 17.9019 42.36)" fill="#FF2828"/>
</g>
<g filter="url(#filter1_b)">
<mask id="path-3-outside-1" maskUnits="userSpaceOnUse" x="2" y="20.6259" width="44" height="44" fill="black">
<rect fill="white" x="2" y="20.6259" width="44" height="44"/>
<path d="M32.6202 21.6259H14.7117C7.70948 21.6259 3 26.5494 3 33.8726V50.774C3 58.0765 7.70948 63.0001 14.7117 63.0001H32.6202C39.6224 63.0001 44.3113 58.0765 44.3113 50.774V33.8726C44.3113 26.5494 39.6224 21.6259 32.6202 21.6259Z"/>
</mask>
<path d="M32.6202 21.6259H14.7117C7.70948 21.6259 3 26.5494 3 33.8726V50.774C3 58.0765 7.70948 63.0001 14.7117 63.0001H32.6202C39.6224 63.0001 44.3113 58.0765 44.3113 50.774V33.8726C44.3113 26.5494 39.6224 21.6259 32.6202 21.6259Z" fill="#FF2828" fill-opacity="0.4"/>
<path d="M32.6202 22.6259C33.1725 22.6259 33.6202 22.1781 33.6202 21.6259C33.6202 21.0736 33.1725 20.6259 32.6202 20.6259V22.6259ZM32.6202 20.6259C32.0679 20.6259 31.6202 21.0736 31.6202 21.6259C31.6202 22.1781 32.0679 22.6259 32.6202 22.6259V20.6259ZM32.6202 20.6259H14.7117V22.6259H32.6202V20.6259ZM14.7117 20.6259C10.9673 20.6259 7.76822 21.9478 5.50733 24.3119C3.25015 26.672 2 29.9947 2 33.8726H4C4 30.4273 5.10459 27.6266 6.95272 25.6942C8.79714 23.7656 11.4539 22.6259 14.7117 22.6259V20.6259ZM2 33.8726V50.774H4V33.8726H2ZM2 50.774C2 54.6423 3.2506 57.9598 5.50775 60.3171C7.76851 62.6781 10.9674 64.0001 14.7117 64.0001V62.0001C11.4538 62.0001 8.79684 60.8602 6.9523 58.9339C5.10415 57.0037 4 54.2082 4 50.774H2ZM14.7117 64.0001H32.6202V62.0001H14.7117V64.0001ZM32.6202 64.0001C36.3647 64.0001 39.5589 62.678 41.8147 60.3162C44.0666 57.9585 45.3113 54.6411 45.3113 50.774H43.3113C43.3113 54.2094 42.2115 57.0051 40.3684 58.9348C38.5292 60.8604 35.8779 62.0001 32.6202 62.0001V64.0001ZM45.3113 50.774V33.8726H43.3113V50.774H45.3113ZM45.3113 33.8726C45.3113 29.9959 44.067 26.6733 41.8151 24.3128C39.5592 21.948 36.3648 20.6259 32.6202 20.6259V22.6259C35.8778 22.6259 38.5289 23.7655 40.368 25.6933C42.2111 27.6253 43.3113 30.4261 43.3113 33.8726H45.3113Z" fill="url(#paint1_linear)" mask="url(#path-3-outside-1)"/>
</g>
<g filter="url(#filter2_bd)">
<mask id="path-5-inside-2" fill="white">
<path fill-rule="evenodd" clip-rule="evenodd" d="M11.923 42.3131C11.923 43.6785 13.0384 44.7956 14.4016 44.7956C15.7649 44.7956 16.8803 43.6785 16.8803 42.3131C16.8803 40.9478 15.7649 39.8328 14.4016 39.8328C13.0384 39.8328 11.923 40.9478 11.923 42.3131ZM23.656 44.7957C22.2927 44.7957 21.1773 43.6786 21.1773 42.3133C21.1773 40.9479 22.2927 39.8329 23.656 39.8329C25.0193 39.8329 26.1347 40.9479 26.1347 42.3133C26.1347 43.6786 25.0193 44.7957 23.656 44.7957ZM32.9097 44.7959C31.5465 44.7959 30.4311 43.6788 30.4311 42.3134C30.4311 40.9481 31.5465 39.833 32.9097 39.833C34.273 39.833 35.3678 40.9481 35.3678 42.3134C35.3678 43.6788 34.273 44.7959 32.9097 44.7959Z"/>
</mask>
<path fill-rule="evenodd" clip-rule="evenodd" d="M11.923 42.3131C11.923 43.6785 13.0384 44.7956 14.4016 44.7956C15.7649 44.7956 16.8803 43.6785 16.8803 42.3131C16.8803 40.9478 15.7649 39.8328 14.4016 39.8328C13.0384 39.8328 11.923 40.9478 11.923 42.3131ZM23.656 44.7957C22.2927 44.7957 21.1773 43.6786 21.1773 42.3133C21.1773 40.9479 22.2927 39.8329 23.656 39.8329C25.0193 39.8329 26.1347 40.9479 26.1347 42.3133C26.1347 43.6786 25.0193 44.7957 23.656 44.7957ZM32.9097 44.7959C31.5465 44.7959 30.4311 43.6788 30.4311 42.3134C30.4311 40.9481 31.5465 39.833 32.9097 39.833C34.273 39.833 35.3678 40.9481 35.3678 42.3134C35.3678 43.6788 34.273 44.7959 32.9097 44.7959Z" fill="url(#paint2_linear)"/>
<path d="M14.4016 44.3956C13.2599 44.3956 12.323 43.4582 12.323 42.3131H11.523C11.523 43.8988 12.8169 45.1956 14.4016 45.1956V44.3956ZM16.4803 42.3131C16.4803 43.4582 15.5434 44.3956 14.4016 44.3956V45.1956C15.9864 45.1956 17.2803 43.8988 17.2803 42.3131H16.4803ZM14.4016 40.2328C15.5439 40.2328 16.4803 41.1686 16.4803 42.3131H17.2803C17.2803 40.727 15.986 39.4328 14.4016 39.4328V40.2328ZM12.323 42.3131C12.323 41.1686 13.2594 40.2328 14.4016 40.2328V39.4328C12.8173 39.4328 11.523 40.727 11.523 42.3131H12.323ZM20.7773 42.3133C20.7773 43.899 22.0712 45.1957 23.656 45.1957V44.3957C22.5142 44.3957 21.5773 43.4583 21.5773 42.3133H20.7773ZM23.656 39.4329C22.0717 39.4329 20.7773 40.7272 20.7773 42.3133H21.5773C21.5773 41.1687 22.5138 40.2329 23.656 40.2329V39.4329ZM26.5347 42.3133C26.5347 40.7272 25.2403 39.4329 23.656 39.4329V40.2329C24.7982 40.2329 25.7347 41.1687 25.7347 42.3133H26.5347ZM23.656 45.1957C25.2407 45.1957 26.5347 43.899 26.5347 42.3133H25.7347C25.7347 43.4583 24.7978 44.3957 23.656 44.3957V45.1957ZM30.0311 42.3134C30.0311 43.8991 31.325 45.1959 32.9097 45.1959V44.3959C31.768 44.3959 30.8311 43.4584 30.8311 42.3134H30.0311ZM32.9097 39.433C31.3254 39.433 30.0311 40.7273 30.0311 42.3134H30.8311C30.8311 41.1689 31.7675 40.233 32.9097 40.233V39.433ZM35.7678 42.3134C35.7678 40.7317 34.4984 39.433 32.9097 39.433V40.233C34.0476 40.233 34.9678 41.1645 34.9678 42.3134H35.7678ZM32.9097 45.1959C34.4988 45.1959 35.7678 43.8947 35.7678 42.3134H34.9678C34.9678 43.4628 34.0472 44.3959 32.9097 44.3959V45.1959Z" fill="url(#paint3_linear)" mask="url(#path-5-inside-2)"/>
</g>
<defs>
<filter id="filter0_f" x="0.441772" y="0.68457" width="66.6422" height="66.7424" filterUnits="userSpaceOnUse" color-interpolation-filters="sRGB">
<feFlood flood-opacity="0" result="BackgroundImageFix"/>
<feBlend mode="normal" in="SourceGraphic" in2="BackgroundImageFix" result="shape"/>
<feGaussianBlur stdDeviation="10" result="effect1_foregroundBlur"/>
</filter>
<filter id="filter1_b" x="-22" y="-3.37415" width="91.3113" height="91.3742" filterUnits="userSpaceOnUse" color-interpolation-filters="sRGB">
<feFlood flood-opacity="0" result="BackgroundImageFix"/>
<feGaussianBlur in="BackgroundImage" stdDeviation="12"/>
<feComposite in2="SourceAlpha" operator="in" result="effect1_backgroundBlur"/>
<feBlend mode="normal" in="SourceGraphic" in2="effect1_backgroundBlur" result="shape"/>
</filter>
<filter id="filter2_bd" x="-3.07703" y="24.8328" width="53.4448" height="34.9631" filterUnits="userSpaceOnUse" color-interpolation-filters="sRGB">
<feFlood flood-opacity="0" result="BackgroundImageFix"/>
<feGaussianBlur in="BackgroundImage" stdDeviation="7.5"/>
<feComposite in2="SourceAlpha" operator="in" result="effect1_backgroundBlur"/>
<feColorMatrix in="SourceAlpha" type="matrix" values="0 0 0 0 0 0 0 0 0 0 0 0 0 0 0 0 0 0 127 0"/>
<feOffset dx="5" dy="5"/>
<feGaussianBlur stdDeviation="5"/>
<feColorMatrix type="matrix" values="0 0 0 0 0.577356 0 0 0 0 0.359375 0 0 0 0 0.9375 0 0 0 0.5 0"/>
<feBlend mode="normal" in2="effect1_backgroundBlur" result="effect2_dropShadow"/>
<feBlend mode="normal" in="SourceGraphic" in2="effect2_dropShadow" result="shape"/>
</filter>
<linearGradient id="paint0_linear" x1="38.49" y1="16.703" x2="29.0828" y2="51.758" gradientUnits="userSpaceOnUse">
<stop stop-color="#FF2828"/>
<stop offset="1" stop-color="#E7171A"/>
</linearGradient>
<linearGradient id="paint1_linear" x1="9.57608" y1="26.446" x2="35.9769" y2="59.0943" gradientUnits="userSpaceOnUse">
<stop stop-color="white" stop-opacity="0.25"/>
<stop offset="1" stop-color="white" stop-opacity="0"/>
</linearGradient>
<linearGradient id="paint2_linear" x1="33.7055" y1="40.729" x2="8.1683" y2="44.6622" gradientUnits="userSpaceOnUse">
<stop stop-color="white"/>
<stop offset="1" stop-color="white" stop-opacity="0.2"/>
</linearGradient>
<linearGradient id="paint3_linear" x1="15.655" y1="40.411" x2="16.7307" y2="46.7044" gradientUnits="userSpaceOnUse">
<stop stop-color="white" stop-opacity="0.25"/>
<stop offset="1" stop-color="white" stop-opacity="0"/>
</linearGradient>
</defs>
</svg>
