<svg width="67" height="62" viewBox="0 0 67 62" fill="none" xmlns="http://www.w3.org/2000/svg">
<g filter="url(#filter0_b)">
<path d="M45.5405 31.5131C45.1409 30.8944 44.5732 30.2756 43.8372 29.8837C43.2484 29.595 42.8698 29.1206 42.5334 28.5637C41.4609 26.79 42.0918 24.4594 43.8792 23.4075C45.9821 22.2319 46.655 19.6125 45.4353 17.5706L44.0264 15.1369C42.8278 13.095 40.1992 12.3731 38.1174 13.5694C36.2669 14.5594 33.8907 13.8994 32.8182 12.1462C32.4818 11.5687 32.2925 10.95 32.3346 10.3312C32.3976 9.52687 32.1453 8.76375 31.7668 8.145C30.9887 6.86625 29.5798 6 28.0237 6H25.0587C23.5236 6.04125 22.1147 6.86625 21.3366 8.145C20.9371 8.76375 20.7058 9.52687 20.7478 10.3312C20.7899 10.95 20.6006 11.5687 20.2642 12.1462C19.1917 13.8994 16.8155 14.5594 14.986 13.5694C12.8832 12.3731 10.2756 13.095 9.05597 15.1369L7.64705 17.5706C6.44843 19.6125 7.12134 22.2319 9.20317 23.4075C10.9906 24.4594 11.6214 26.79 10.57 28.5637C10.2125 29.1206 9.83402 29.595 9.24522 29.8837C8.53025 30.2756 7.8994 30.8944 7.56294 31.5131C6.78488 32.7919 6.82694 34.4006 7.605 35.7412L9.05597 38.2162C9.83402 39.5362 11.285 40.3612 12.799 40.3612C13.514 40.3612 14.3552 40.155 15.0281 39.7425C15.5538 39.3919 16.1846 39.2681 16.8786 39.2681C18.9604 39.2681 20.7058 40.98 20.7478 43.0219C20.7478 45.3937 22.6825 47.25 25.1218 47.25H27.9816C30.3999 47.25 32.3346 45.3937 32.3346 43.0219C32.3976 40.98 34.143 39.2681 36.2248 39.2681C36.8977 39.2681 37.5286 39.3919 38.0753 39.7425C38.7483 40.155 39.5684 40.3612 40.3044 40.3612C41.7974 40.3612 43.2484 39.5362 44.0264 38.2162L45.4984 35.7412C46.2554 34.3594 46.3185 32.7919 45.5405 31.5131Z" fill="url(#paint0_linear)"/>
</g>
<g opacity="0.5" filter="url(#filter1_f)">
<path d="M36.474 29.257C36.2679 28.9385 35.9752 28.62 35.5957 28.4183C35.2921 28.2697 35.0969 28.0256 34.9234 27.7389C34.3705 26.826 34.6957 25.6264 35.6174 25.085C36.7017 24.4799 37.0486 23.1317 36.4197 22.0807L35.6933 20.828C35.0752 19.7771 33.7199 19.4055 32.6464 20.0212C31.6923 20.5308 30.467 20.1911 29.914 19.2888C29.7406 18.9915 29.643 18.673 29.6647 18.3546C29.6972 17.9405 29.5671 17.5478 29.3719 17.2293C28.9707 16.5711 28.2442 16.1252 27.4419 16.1252H25.913C25.1215 16.1465 24.395 16.5711 23.9939 17.2293C23.7878 17.5478 23.6686 17.9405 23.6903 18.3546C23.7119 18.673 23.6144 18.9915 23.4409 19.2888C22.8879 20.1911 21.6626 20.5308 20.7193 20.0212C19.635 19.4055 18.2905 19.7771 17.6616 20.828L16.9352 22.0807C16.3171 23.1317 16.6641 24.4799 17.7375 25.085C18.6592 25.6264 18.9845 26.826 18.4423 27.7389C18.258 28.0256 18.0628 28.2697 17.7592 28.4183C17.3906 28.62 17.0653 28.9385 16.8918 29.257C16.4906 29.9152 16.5123 30.7432 16.9135 31.4332L17.6616 32.7071C18.0628 33.3865 18.811 33.8112 19.5917 33.8112C19.9603 33.8112 20.394 33.705 20.741 33.4927C21.0121 33.3122 21.3374 33.2485 21.6952 33.2485C22.7686 33.2485 23.6686 34.1297 23.6903 35.1806C23.6903 36.4014 24.6878 37.3569 25.9456 37.3569H27.4202C28.6671 37.3569 29.6647 36.4014 29.6647 35.1806C29.6972 34.1297 30.5971 33.2485 31.6706 33.2485C32.0176 33.2485 32.3428 33.3122 32.6248 33.4927C32.9717 33.705 33.3946 33.8112 33.7741 33.8112C34.5439 33.8112 35.2921 33.3865 35.6933 32.7071L36.4523 31.4332C36.8426 30.722 36.8751 29.9152 36.474 29.257Z" fill="#FF2828"/>
</g>
<g filter="url(#filter2_b)">
<mask id="path-3-outside-1" maskUnits="userSpaceOnUse" x="17.6066" y="10.4595" width="50" height="52" fill="black">
<rect fill="white" x="17.6066" y="10.4595" width="50" height="52"/>
<path d="M65.3268 42.1002C64.8425 41.3571 64.1542 40.614 63.262 40.1434C62.5483 39.7966 62.0894 39.2269 61.6815 38.5581C60.3815 36.4279 61.1462 33.6288 63.313 32.3655C65.8622 30.9536 66.6779 27.8078 65.1994 25.3556L63.4914 22.4327C62.0384 19.9804 58.852 19.1135 56.3283 20.5501C54.085 21.7391 51.2045 20.9465 49.9044 18.841C49.4965 18.1474 49.2671 17.4043 49.3181 16.6612C49.3946 15.6952 49.0887 14.7787 48.6298 14.0356C47.6866 12.4998 45.9787 11.4595 44.0923 11.4595H40.498C38.6371 11.509 36.9292 12.4998 35.986 14.0356C35.5016 14.7787 35.2212 15.6952 35.2722 16.6612C35.3232 17.4043 35.0938 18.1474 34.6859 18.841C33.3858 20.9465 30.5053 21.7391 28.2875 20.5501C25.7383 19.1135 22.5774 19.9804 21.0989 22.4327L19.3909 25.3556C17.9379 27.8078 18.7536 30.9536 21.2773 32.3655C23.4441 33.6288 24.2089 36.4279 22.9343 38.5581C22.5009 39.2269 22.0421 39.7966 21.3283 40.1434C20.4616 40.614 19.6968 41.3571 19.289 42.1002C18.3458 43.636 18.3968 45.5681 19.34 47.1781L21.0989 50.1506C22.0421 51.7358 23.801 52.7267 25.6364 52.7267C26.5031 52.7267 27.5228 52.479 28.3385 51.9836C28.9758 51.5625 29.7405 51.4138 30.5818 51.4138C33.1054 51.4138 35.2212 53.4698 35.2722 55.922C35.2722 58.7706 37.6174 60.9999 40.5745 60.9999H44.0413C46.9729 60.9999 49.3181 58.7706 49.3181 55.922C49.3946 53.4698 51.5104 51.4138 54.034 51.4138C54.8498 51.4138 55.6145 51.5625 56.2773 51.9836C57.093 52.479 58.0872 52.7267 58.9794 52.7267C60.7893 52.7267 62.5483 51.7358 63.4914 50.1506L65.2759 47.1781C66.1936 45.5185 66.27 43.636 65.3268 42.1002Z"/>
</mask>
<path d="M65.3268 42.1002C64.8425 41.3571 64.1542 40.614 63.262 40.1434C62.5483 39.7966 62.0894 39.2269 61.6815 38.5581C60.3815 36.4279 61.1462 33.6288 63.313 32.3655C65.8622 30.9536 66.6779 27.8078 65.1994 25.3556L63.4914 22.4327C62.0384 19.9804 58.852 19.1135 56.3283 20.5501C54.085 21.7391 51.2045 20.9465 49.9044 18.841C49.4965 18.1474 49.2671 17.4043 49.3181 16.6612C49.3946 15.6952 49.0887 14.7787 48.6298 14.0356C47.6866 12.4998 45.9787 11.4595 44.0923 11.4595H40.498C38.6371 11.509 36.9292 12.4998 35.986 14.0356C35.5016 14.7787 35.2212 15.6952 35.2722 16.6612C35.3232 17.4043 35.0938 18.1474 34.6859 18.841C33.3858 20.9465 30.5053 21.7391 28.2875 20.5501C25.7383 19.1135 22.5774 19.9804 21.0989 22.4327L19.3909 25.3556C17.9379 27.8078 18.7536 30.9536 21.2773 32.3655C23.4441 33.6288 24.2089 36.4279 22.9343 38.5581C22.5009 39.2269 22.0421 39.7966 21.3283 40.1434C20.4616 40.614 19.6968 41.3571 19.289 42.1002C18.3458 43.636 18.3968 45.5681 19.34 47.1781L21.0989 50.1506C22.0421 51.7358 23.801 52.7267 25.6364 52.7267C26.5031 52.7267 27.5228 52.479 28.3385 51.9836C28.9758 51.5625 29.7405 51.4138 30.5818 51.4138C33.1054 51.4138 35.2212 53.4698 35.2722 55.922C35.2722 58.7706 37.6174 60.9999 40.5745 60.9999H44.0413C46.9729 60.9999 49.3181 58.7706 49.3181 55.922C49.3946 53.4698 51.5104 51.4138 54.034 51.4138C54.8498 51.4138 55.6145 51.5625 56.2773 51.9836C57.093 52.479 58.0872 52.7267 58.9794 52.7267C60.7893 52.7267 62.5483 51.7358 63.4914 50.1506L65.2759 47.1781C66.1936 45.5185 66.27 43.636 65.3268 42.1002Z" fill="#FF749F" fill-opacity="0.35"/>
<path d="M64.4891 42.6463C64.7906 43.109 65.4102 43.2396 65.8729 42.938C66.3356 42.6364 66.4662 42.0169 66.1646 41.5542L64.4891 42.6463ZM63.262 40.1434L63.7286 39.2589C63.7188 39.2537 63.709 39.2488 63.699 39.2439L63.262 40.1434ZM61.6815 38.5581L62.5353 38.0374L62.5351 38.0371L61.6815 38.5581ZM63.313 32.3655L62.8285 31.4908C62.8221 31.4943 62.8157 31.4979 62.8093 31.5016L63.313 32.3655ZM65.1994 25.3556L64.3359 25.8601L64.343 25.8719L65.1994 25.3556ZM63.4914 22.4327L64.3549 21.9282L64.3518 21.9229L63.4914 22.4327ZM56.3283 20.5501L56.7966 21.4337C56.8055 21.429 56.8143 21.4242 56.823 21.4192L56.3283 20.5501ZM49.9044 18.841L49.0424 19.3479C49.0461 19.3541 49.0498 19.3603 49.0535 19.3664L49.9044 18.841ZM49.3181 16.6612L48.3212 16.5823L48.3204 16.5928L49.3181 16.6612ZM48.6298 14.0356L47.7777 14.5589L47.779 14.561L48.6298 14.0356ZM40.498 11.4595V10.4595C40.4891 10.4595 40.4803 10.4596 40.4714 10.4598L40.498 11.4595ZM35.986 14.0356L36.8237 14.5816C36.8286 14.5741 36.8334 14.5665 36.8381 14.5589L35.986 14.0356ZM35.2722 16.6612L34.2736 16.7139C34.2739 16.7192 34.2742 16.7244 34.2746 16.7297L35.2722 16.6612ZM34.6859 18.841L35.5368 19.3664C35.5406 19.3603 35.5443 19.3541 35.5479 19.3479L34.6859 18.841ZM28.2875 20.5501L27.7965 21.4213C27.8027 21.4248 27.8088 21.4282 27.815 21.4315L28.2875 20.5501ZM21.0989 22.4327L20.2424 21.9163L20.2355 21.9282L21.0989 22.4327ZM19.3909 25.3556L20.2513 25.8653L20.2543 25.8601L19.3909 25.3556ZM21.2773 32.3655L21.781 31.5016C21.7759 31.4987 21.7707 31.4957 21.7656 31.4928L21.2773 32.3655ZM22.9343 38.5581L23.7735 39.1019C23.78 39.0919 23.7863 39.0818 23.7924 39.0715L22.9343 38.5581ZM21.3283 40.1434L20.8913 39.2439C20.8777 39.2505 20.8643 39.2574 20.8511 39.2646L21.3283 40.1434ZM19.289 42.1002L20.1411 42.6236C20.1496 42.6097 20.1578 42.5956 20.1656 42.5814L19.289 42.1002ZM19.34 47.1781L18.4771 47.6836L18.4793 47.6874L19.34 47.1781ZM21.0989 50.1506L20.2383 50.6598L20.2395 50.6619L21.0989 50.1506ZM28.3385 51.9836L28.8576 52.8383C28.8684 52.8317 28.8792 52.8249 28.8898 52.8179L28.3385 51.9836ZM35.2722 55.922H36.2722C36.2722 55.9151 36.2721 55.9082 36.272 55.9012L35.2722 55.922ZM49.3181 55.922L48.3186 55.8908C48.3183 55.9012 48.3181 55.9116 48.3181 55.922H49.3181ZM56.2773 51.9836L55.7411 52.8276C55.7467 52.8312 55.7525 52.8348 55.7582 52.8383L56.2773 51.9836ZM63.4914 50.1506L62.6341 49.6359L62.632 49.6392L63.4914 50.1506ZM65.2759 47.1781L66.1332 47.6928C66.1393 47.6827 66.1452 47.6724 66.151 47.662L65.2759 47.1781ZM66.179 41.5769C65.8899 41.1063 65.2741 40.9591 64.8035 41.2481C64.3329 41.5371 64.1857 42.153 64.4747 42.6236L66.179 41.5769ZM66.1646 41.5542C65.6166 40.7134 64.8125 39.8307 63.7286 39.2589L62.7955 41.0279C63.496 41.3974 64.0684 42.0008 64.4891 42.6463L66.1646 41.5542ZM63.699 39.2439C63.2395 39.0207 62.9048 38.6433 62.5353 38.0374L60.8278 39.0788C61.274 39.8105 61.857 40.5725 62.825 41.0428L63.699 39.2439ZM62.5351 38.0371C61.5396 36.406 62.1124 34.2231 63.8167 33.2294L62.8093 31.5016C60.1801 33.0346 59.2233 36.4497 60.8279 39.079L62.5351 38.0371ZM63.7975 33.2403C66.8444 31.5528 67.8257 27.7749 66.0558 24.8392L64.343 25.8719C65.5301 27.8408 64.88 30.3545 62.8285 31.4908L63.7975 33.2403ZM66.0628 24.8511L64.3548 21.9282L62.628 22.9372L64.336 25.8601L66.0628 24.8511ZM64.3518 21.9229C62.6211 19.0021 58.8321 17.9741 55.8336 19.6811L56.823 21.4192C58.8718 20.2528 61.4557 20.9587 62.6311 22.9424L64.3518 21.9229ZM55.86 19.6666C54.0782 20.611 51.7762 19.9691 50.7553 18.3156L49.0535 19.3664C50.6327 21.9239 54.0919 22.8673 56.7966 21.4337L55.86 19.6666ZM50.7664 18.3341C50.4301 17.7622 50.2822 17.2189 50.3158 16.7297L48.3204 16.5928C48.252 17.5898 48.563 18.5327 49.0424 19.3479L50.7664 18.3341ZM50.315 16.7401C50.412 15.514 50.0227 14.3881 49.4807 13.5102L47.779 14.561C48.1546 15.1693 48.3771 15.8763 48.3212 16.5823L50.315 16.7401ZM49.482 13.5122C48.3689 11.6999 46.3487 10.4595 44.0923 10.4595V12.4595C45.6087 12.4595 47.0044 13.2997 47.7777 14.5589L49.482 13.5122ZM44.0923 10.4595H40.498V12.4595H44.0923V10.4595ZM40.4714 10.4598C38.2765 10.5183 36.2561 11.685 35.1339 13.5122L36.8381 14.5589C37.6023 13.3147 38.9977 12.4998 40.5246 12.4591L40.4714 10.4598ZM35.1482 13.4895C34.5569 14.3968 34.2106 15.5209 34.2736 16.7139L36.2708 16.6085C36.2318 15.8694 36.4464 15.1606 36.8237 14.5816L35.1482 13.4895ZM34.2746 16.7297C34.3081 17.2189 34.1602 17.7622 33.8239 18.3341L35.5479 19.3479C36.0273 18.5327 36.3383 17.5898 36.2699 16.5928L34.2746 16.7297ZM33.835 18.3156C32.8121 19.9723 30.5109 20.6075 28.76 19.6688L27.815 21.4315C30.4996 22.8707 33.9596 21.9207 35.5368 19.3664L33.835 18.3156ZM28.7785 19.679C25.7547 17.9748 21.9982 19.0043 20.2425 21.9163L21.9553 22.949C23.1566 20.9565 25.722 20.2522 27.7965 21.4213L28.7785 19.679ZM20.2355 21.9282L18.5275 24.8511L20.2543 25.8601L21.9623 22.9372L20.2355 21.9282ZM18.5306 24.8458C16.7939 27.7768 17.7702 31.5493 20.7891 33.2382L21.7656 31.4928C19.7371 30.358 19.0819 27.8388 20.2513 25.8653L18.5306 24.8458ZM20.7736 33.2294C22.4779 34.2231 23.054 36.4103 22.0761 38.0447L23.7924 39.0715C25.3637 36.4454 24.4103 33.0346 21.781 31.5016L20.7736 33.2294ZM22.095 38.0143C21.6894 38.6403 21.3535 39.0194 20.8913 39.2439L21.7653 41.0428C22.7306 40.5738 23.3124 39.8135 23.7735 39.1019L22.095 38.0143ZM20.8511 39.2646C19.8368 39.8154 18.9233 40.6881 18.4123 41.6191L20.1656 42.5814C20.4704 42.0261 21.0864 41.4127 21.8055 41.0222L20.8511 39.2646ZM18.4368 41.5769C17.2805 43.4597 17.3673 45.7891 18.4771 47.6836L20.2028 46.6727C19.4262 45.347 19.411 43.8123 20.1411 42.6236L18.4368 41.5769ZM18.4793 47.6874L20.2383 50.6598L21.9595 49.6413L20.2006 46.6689L18.4793 47.6874ZM20.2395 50.6619C21.3642 52.5523 23.4509 53.7267 25.6364 53.7267V51.7267C24.1511 51.7267 22.7199 50.9194 21.9583 49.6392L20.2395 50.6619ZM25.6364 53.7267C26.6682 53.7267 27.8707 53.4376 28.8576 52.8383L27.8194 51.1288C27.1748 51.5203 26.338 51.7267 25.6364 51.7267V53.7267ZM28.8898 52.8179C29.3031 52.5448 29.8488 52.4138 30.5818 52.4138V50.4138C29.6322 50.4138 28.6484 50.5802 27.7872 51.1492L28.8898 52.8179ZM30.5818 52.4138C32.5757 52.4138 34.2331 54.049 34.2724 55.9428L36.272 55.9012C36.2094 52.8906 33.6352 50.4138 30.5818 50.4138V52.4138ZM34.2722 55.922C34.2722 59.3653 37.1085 61.9999 40.5745 61.9999V59.9999C38.1263 59.9999 36.2722 58.1759 36.2722 55.922H34.2722ZM40.5745 61.9999H44.0413V59.9999H40.5745V61.9999ZM44.0413 61.9999C47.485 61.9999 50.3181 59.3622 50.3181 55.922H48.3181C48.3181 58.179 46.4608 59.9999 44.0413 59.9999V61.9999ZM50.3176 55.9532C50.377 54.049 52.0424 52.4138 54.034 52.4138V50.4138C50.9784 50.4138 48.4122 52.8906 48.3186 55.8908L50.3176 55.9532ZM54.034 52.4138C54.7329 52.4138 55.2907 52.5415 55.7411 52.8276L56.8136 51.1395C55.9383 50.5834 54.9667 50.4138 54.034 50.4138V52.4138ZM55.7582 52.8383C56.7432 53.4365 57.9197 53.7267 58.9794 53.7267V51.7267C58.2548 51.7267 57.4429 51.5215 56.7964 51.1288L55.7582 52.8383ZM58.9794 53.7267C61.1421 53.7267 63.2275 52.55 64.3508 50.6619L62.632 49.6392C61.869 50.9217 60.4366 51.7267 58.9794 51.7267V53.7267ZM64.3488 50.6653L66.1332 47.6928L64.4185 46.6634L62.6341 49.6359L64.3488 50.6653ZM66.151 47.662C67.2113 45.7446 67.3428 43.4719 66.179 41.5769L64.4747 42.6236C65.1973 43.8001 65.1758 45.2925 64.4007 46.6942L66.151 47.662Z" fill="url(#paint1_linear)" mask="url(#path-3-outside-1)"/>
</g>
<g filter="url(#filter3_bd)">
<path d="M42.3397 43.0464C38.3375 43.0464 35.1001 39.9502 35.1001 36.0612C35.1001 32.1723 38.3375 29.0513 42.3397 29.0513C46.3419 29.0513 49.5028 32.1723 49.5028 36.0612C49.5028 39.9502 46.3419 43.0464 42.3397 43.0464Z" fill="url(#paint2_linear)"/>
<path d="M42.3397 42.8464C38.4406 42.8464 35.3001 39.8325 35.3001 36.0612C35.3001 32.2891 38.4416 29.2513 42.3397 29.2513C46.235 29.2513 49.3028 32.2863 49.3028 36.0612C49.3028 39.8353 46.2359 42.8464 42.3397 42.8464Z" stroke="url(#paint3_linear)" stroke-width="0.4"/>
</g>
<defs>
<filter id="filter0_b" x="-6" y="-7" width="65.0958" height="67.25" filterUnits="userSpaceOnUse" color-interpolation-filters="sRGB">
<feFlood flood-opacity="0" result="BackgroundImageFix"/>
<feGaussianBlur in="BackgroundImage" stdDeviation="6.5"/>
<feComposite in2="SourceAlpha" operator="in" result="effect1_backgroundBlur"/>
<feBlend mode="normal" in="SourceGraphic" in2="effect1_backgroundBlur" result="shape"/>
</filter>
<filter id="filter1_f" x="0.601532" y="0.125244" width="52.1588" height="53.2316" filterUnits="userSpaceOnUse" color-interpolation-filters="sRGB">
<feFlood flood-opacity="0" result="BackgroundImageFix"/>
<feBlend mode="normal" in="SourceGraphic" in2="BackgroundImageFix" result="shape"/>
<feGaussianBlur stdDeviation="8" result="effect1_foregroundBlur"/>
</filter>
<filter id="filter2_b" x="-6.39349" y="-13.5405" width="97.3936" height="99.5404" filterUnits="userSpaceOnUse" color-interpolation-filters="sRGB">
<feFlood flood-opacity="0" result="BackgroundImageFix"/>
<feGaussianBlur in="BackgroundImage" stdDeviation="12"/>
<feComposite in2="SourceAlpha" operator="in" result="effect1_backgroundBlur"/>
<feBlend mode="normal" in="SourceGraphic" in2="effect1_backgroundBlur" result="shape"/>
</filter>
<filter id="filter3_bd" x="20.1001" y="14.0513" width="44.4028" height="43.9952" filterUnits="userSpaceOnUse" color-interpolation-filters="sRGB">
<feFlood flood-opacity="0" result="BackgroundImageFix"/>
<feGaussianBlur in="BackgroundImage" stdDeviation="7.5"/>
<feComposite in2="SourceAlpha" operator="in" result="effect1_backgroundBlur"/>
<feColorMatrix in="SourceAlpha" type="matrix" values="0 0 0 0 0 0 0 0 0 0 0 0 0 0 0 0 0 0 127 0"/>
<feOffset dx="5" dy="5"/>
<feGaussianBlur stdDeviation="5"/>
<feColorMatrix type="matrix" values="0 0 0 0 1 0 0 0 0 0.321569 0 0 0 0 0.54902 0 0 0 0.5 0"/>
<feBlend mode="normal" in2="effect1_backgroundBlur" result="effect2_dropShadow"/>
<feBlend mode="normal" in="SourceGraphic" in2="effect2_dropShadow" result="shape"/>
</filter>
<linearGradient id="paint0_linear" x1="29.4261" y1="29.3873" x2="-5.60836" y2="45.5322" gradientUnits="userSpaceOnUse">
<stop stop-color="#FF2828"/>
<stop offset="1" stop-color="#FF196E"/>
<stop offset="1" stop-color="#FF2828"/>
</linearGradient>
<linearGradient id="paint1_linear" x1="26.1508" y1="17.231" x2="58.0187" y2="54.9896" gradientUnits="userSpaceOnUse">
<stop stop-color="white" stop-opacity="0.25"/>
<stop offset="1" stop-color="white" stop-opacity="0"/>
</linearGradient>
<linearGradient id="paint2_linear" x1="48.4817" y1="31.5785" x2="32.4394" y2="32.1168" gradientUnits="userSpaceOnUse">
<stop stop-color="white"/>
<stop offset="1" stop-color="white" stop-opacity="0.2"/>
</linearGradient>
<linearGradient id="paint3_linear" x1="37.3928" y1="30.6817" x2="46.2629" y2="41.9875" gradientUnits="userSpaceOnUse">
<stop stop-color="white" stop-opacity="0.25"/>
<stop offset="1" stop-color="white" stop-opacity="0"/>
</linearGradient>
</defs>
</svg>
